<svg width="103" height="15" viewBox="0 0 103 15" fill="none" xmlns="http://www.w3.org/2000/svg">
<g clip-path="url(#clip0_1_752)">
<path d="M7.49999 11.4125L3.09187 13.88L4.07624 8.925L0.366867 5.495L5.38374 4.9L7.49999 0.3125L9.61624 4.9L14.6331 5.495L10.9237 8.925L11.9081 13.88L7.49999 11.4125Z" fill="black"/>
</g>
<g clip-path="url(#clip1_1_752)">
<path d="M29.5 11.4125L25.0919 13.88L26.0762 8.925L22.3669 5.495L27.3837 4.9L29.5 0.3125L31.6162 4.9L36.6331 5.495L32.9237 8.925L33.9081 13.88L29.5 11.4125Z" fill="black"/>
</g>
<g clip-path="url(#clip2_1_752)">
<path d="M51.5 11.4125L47.0919 13.88L48.0762 8.925L44.3669 5.495L49.3837 4.9L51.5 0.3125L53.6162 4.9L58.6331 5.495L54.9237 8.925L55.9081 13.88L51.5 11.4125Z" fill="black"/>
</g>
<g clip-path="url(#clip3_1_752)">
<path d="M73.5 11.4125L69.0919 13.88L70.0762 8.925L66.3669 5.495L71.3837 4.9L73.5 0.3125L75.6162 4.9L80.6331 5.495L76.9237 8.925L77.9081 13.88L73.5 11.4125Z" fill="black"/>
</g>
<g clip-path="url(#clip4_1_752)">
<path d="M95.5 9.98L98.1544 11.4656L97.5612 8.4825L99.7944 6.41687L96.7737 6.05875L95.5 3.29688V9.98ZM95.5 11.4125L91.0919 13.88L92.0762 8.925L88.3669 5.495L93.3837 4.9L95.5 0.3125L97.6162 4.9L102.633 5.495L98.9237 8.925L99.9081 13.88L95.5 11.4125Z" fill="black"/>
</g>
<defs>
<clipPath id="clip0_1_752">
<rect width="15" height="15" fill="white"/>
</clipPath>
<clipPath id="clip1_1_752">
<rect width="15" height="15" fill="white" transform="translate(22)"/>
</clipPath>
<clipPath id="clip2_1_752">
<rect width="15" height="15" fill="white" transform="translate(44)"/>
</clipPath>
<clipPath id="clip3_1_752">
<rect width="15" height="15" fill="white" transform="translate(66)"/>
</clipPath>
<clipPath id="clip4_1_752">
<rect width="15" height="15" fill="white" transform="translate(88)"/>
</clipPath>
</defs>
</svg>
